# Blender 4.0.2
# www.blender.org
mtllib yooogigashoot.mtl
o Cube
v -0.100000 -0.100000 -0.350000
v -0.100000 0.100000 -0.350000
v 0.100000 -0.100000 -0.350000
v 0.100000 0.100000 -0.350000
v -0.030629 -0.030629 0.350000
v -0.100000 -0.100000 0.107201
v -0.030629 0.030629 0.350000
v -0.100000 0.100000 0.107201
v 0.030629 -0.030629 0.350000
v 0.100000 -0.100000 0.107201
v 0.030629 0.030629 0.350000
v 0.100000 0.100000 0.107201
vn -0.0000 -0.0000 1.0000
vn -0.0000 -0.0000 -1.0000
vn -0.0000 1.0000 -0.0000
vn -1.0000 -0.0000 -0.0000
vn 1.0000 -0.0000 -0.0000
vn -0.9615 -0.0000 0.2747
vn 0.9615 -0.0000 0.2747
vn -0.0000 -0.9615 0.2747
vn -0.0000 0.9615 0.2747
vn -0.0000 -1.0000 -0.0000
vt 0.461714 0.836714
vt 0.538286 0.836714
vt 0.538286 0.913286
vt 0.461714 0.913286
vt 0.375000 0.250000
vt 0.625000 0.250000
vt 0.625000 0.500000
vt 0.375000 0.500000
vt 0.875000 0.500000
vt 0.875000 0.663286
vt 0.625000 0.663286
vt 0.375000 0.086714
vt 0.625000 0.086714
vt 0.375000 0.663286
vt 0.625000 1.000000
vt 0.375000 1.000000
vt 0.375000 0.750000
vt 0.625000 0.750000
vt 0.125000 0.500000
vt 0.125000 0.663286
s 0
f 9/1/1 11/2/1 7/3/1 5/4/1
f 1/5/2 2/6/2 4/7/2 3/8/2
f 4/7/3 2/9/3 8/10/3 12/11/3
f 6/12/4 8/13/4 2/6/4 1/5/4
f 3/8/5 4/7/5 12/11/5 10/14/5
f 5/4/6 7/3/6 8/15/6 6/16/6
f 11/2/7 9/1/7 10/14/7 12/11/7
f 6/16/8 10/17/8 9/1/8 5/4/8
f 12/18/9 8/15/9 7/3/9 11/2/9
f 1/19/10 3/8/10 10/14/10 6/20/10
